<svg width="65" height="65" viewBox="0 0 65 65" fill="none" xmlns="http://www.w3.org/2000/svg">
<g clip-path="url(#clip0_1_40)">
<mask id="mask0_1_40" style="mask-type:luminance" maskUnits="userSpaceOnUse" x="0" y="0" width="65" height="65">
<path d="M0.3125 0.59375H64.3125V64.5938H0.3125V0.59375Z" fill="white"/>
</mask>
<g mask="url(#mask0_1_40)">
<path d="M44.7925 8.67375L23.4595 0.67375C23.1484 0.567083 22.8106 0.567083 22.4995 0.67375L1.16552 8.67375C0.913144 8.77161 0.696445 8.94381 0.54412 9.16757C0.391795 9.39132 0.31103 9.65607 0.31252 9.92675V27.0737C0.31252 51.3937 22.4725 56.5137 22.6855 56.5667C22.7925 56.5937 22.8725 56.5938 22.9795 56.5938C23.0855 56.5938 23.1655 56.5937 23.2725 56.5667C23.3795 56.5407 29.2725 55.1807 34.9795 50.5667C34.9795 46.7537 37.1655 43.4738 40.3125 41.7938C40.3655 37.8738 42.3125 34.3808 45.2725 32.2208C45.5125 30.6208 45.6455 28.8867 45.6455 27.0737V9.92675C45.6455 9.36675 45.2995 8.86075 44.7925 8.67375Z" fill="black"/>
<path d="M44.7925 8.67375L23.4595 0.67375C23.1484 0.567083 22.8106 0.567083 22.4995 0.67375L1.16552 8.67375C0.913144 8.77161 0.696445 8.94381 0.54412 9.16757C0.391795 9.39132 0.31103 9.65607 0.31252 9.92675V27.0737C0.31252 51.3937 22.4725 56.5137 22.6855 56.5667C22.7925 56.5937 22.8725 56.5938 22.9795 56.5938C23.0855 56.5938 23.1655 56.5937 23.2725 56.5667C23.3795 56.5407 29.2725 55.1807 34.9795 50.5667C34.9795 46.7537 37.1655 43.4738 40.3125 41.7938C40.3655 37.8738 42.3125 34.3808 45.2725 32.2208C45.5125 30.6208 45.6455 28.8867 45.6455 27.0737V9.92675C45.6455 9.36675 45.2995 8.86075 44.7925 8.67375Z" fill="url(#paint0_linear_1_40)"/>
<path d="M59.6455 45.9267H58.9795V41.9267C58.9774 40.1593 58.2743 38.4648 57.0244 37.2152C55.7745 35.9655 54.08 35.2626 52.3125 35.2607C50.545 35.2626 48.8505 35.9655 47.6006 37.2152C46.3507 38.4648 45.6476 40.1593 45.6455 41.9267V45.9267H44.9795C43.7421 45.9281 42.5558 46.4202 41.6809 47.2951C40.8059 48.1701 40.3138 49.3564 40.3125 50.5937V59.9267C40.3138 61.1641 40.8059 62.3504 41.6809 63.2253C42.5558 64.1003 43.7421 64.5924 44.9795 64.5937H59.6455C60.8829 64.5924 62.0692 64.1003 62.9441 63.2253C63.8191 62.3504 64.3112 61.1641 64.3125 59.9267V50.5937C64.3112 49.3564 63.8191 48.1701 62.9441 47.2951C62.0692 46.4202 60.8829 45.9281 59.6455 45.9267ZM49.6455 41.9267C49.6466 41.2198 49.9279 40.5422 50.4279 40.0424C50.9278 39.5426 51.6056 39.2615 52.3125 39.2607C53.0194 39.2615 53.6972 39.5426 54.1971 40.0424C54.6971 40.5422 54.9784 41.2198 54.9795 41.9267V45.9267H49.6455V41.9267Z" fill="#3D5DF2"/>
<path d="M23.9925 28.9268H21.9655C20.5515 28.9247 19.1894 28.3935 18.1474 27.4376C17.1054 26.4816 16.459 25.1703 16.3353 23.7617C16.2117 22.3531 16.6198 20.9492 17.4793 19.8264C18.3388 18.7036 19.5874 17.9431 20.9795 17.6947V15.5938C20.9795 15.0633 21.1902 14.5546 21.5653 14.1795C21.9404 13.8045 22.4491 13.5937 22.9795 13.5938C23.5099 13.5937 24.0186 13.8045 24.3937 14.1795C24.7688 14.5546 24.9795 15.0633 24.9795 15.5938V17.5938H27.6455C28.1759 17.5938 28.6846 17.8045 29.0597 18.1795C29.4348 18.5546 29.6455 19.0633 29.6455 19.5938C29.6455 20.1242 29.4348 20.6329 29.0597 21.008C28.6846 21.383 28.1759 21.5938 27.6455 21.5938H21.9655C21.0535 21.5938 20.3125 22.3347 20.3125 23.2467C20.3125 24.1857 21.0535 24.9268 21.9655 24.9268H23.9925C25.4066 24.9285 26.7688 25.4596 27.811 26.4154C28.8532 27.3713 29.4998 28.6826 29.6236 30.0913C29.7474 31.5 29.3394 32.904 28.4799 34.0269C27.6204 35.1499 26.3716 35.9104 24.9795 36.1587V38.2578C24.9795 38.7882 24.7688 39.2969 24.3937 39.672C24.0186 40.047 23.5099 40.2578 22.9795 40.2578C22.4491 40.2578 21.9404 40.047 21.5653 39.672C21.1902 39.2969 20.9795 38.7882 20.9795 38.2578V36.2607H18.3125C17.7821 36.2607 17.2734 36.05 16.8983 35.675C16.5232 35.2999 16.3125 34.7912 16.3125 34.2607C16.3125 33.7303 16.5232 33.2216 16.8983 32.8465C17.2734 32.4715 17.7821 32.2607 18.3125 32.2607H23.9925C24.9045 32.2607 25.6455 31.5188 25.6455 30.6068C25.6481 30.3877 25.6074 30.1702 25.5256 29.967C25.4438 29.7637 25.3226 29.5787 25.1689 29.4225C25.0152 29.2663 24.8322 29.1421 24.6303 29.057C24.4283 28.9719 24.2116 28.9277 23.9925 28.9268Z" fill="white"/>
</g>
</g>
<defs>
<linearGradient id="paint0_linear_1_40" x1="22.9795" y1="0.59375" x2="-22.3945" y2="112.491" gradientUnits="userSpaceOnUse">
<stop stop-color="#B09CFF"/>
<stop offset="1" stop-color="#3D5DF2" stop-opacity="0.79"/>
</linearGradient>
<clipPath id="clip0_1_40">
<rect width="64" height="64" fill="white" transform="translate(0.3125 0.59375)"/>
</clipPath>
</defs>
</svg>
