<svg width="65" height="65" viewBox="0 0 65 65" fill="none" xmlns="http://www.w3.org/2000/svg">
<g clip-path="url(#clip0_1_26)">
<mask id="mask0_1_26" style="mask-type:luminance" maskUnits="userSpaceOnUse" x="0" y="0" width="65" height="65">
<path d="M0.984375 0.59375H64.9844V64.5938H0.984375V0.59375Z" fill="white"/>
</mask>
<g mask="url(#mask0_1_26)">
<path d="M54.9844 0.59375H10.9844C9.89138 0.59375 8.98438 1.50075 8.98438 2.59375V25.2607C8.98398 26.2238 9.17339 27.1776 9.54176 28.0674C9.91014 28.9573 10.4503 29.7658 11.1313 30.4468C11.8123 31.1279 12.6208 31.668 13.5107 32.0364C14.4005 32.4047 15.3543 32.5941 16.3174 32.5938H23.0114C24.1072 30.9535 25.5906 29.6087 27.3301 28.6785C29.0697 27.7483 31.0117 27.2613 32.9844 27.2607C37.1174 27.2607 40.7974 29.3668 42.9574 32.5938H49.6514C50.6145 32.5941 51.5682 32.4047 52.4581 32.0364C53.3479 31.668 54.1565 31.1279 54.8375 30.4468C55.5185 29.7658 56.0586 28.9573 56.427 28.0674C56.7954 27.1776 56.9848 26.2238 56.9844 25.2607V2.59375C56.9844 1.50075 56.0774 0.59375 54.9844 0.59375ZM44.9844 17.2607C44.9838 17.791 44.773 18.2994 44.398 18.6744C44.023 19.0493 43.5146 19.2602 42.9844 19.2607C42.7218 19.261 42.4617 19.2092 42.2192 19.1085C41.9767 19.0077 41.7565 18.86 41.5714 18.6737L39.4754 16.5778L35.6754 20.0627C35.3633 20.3519 34.9669 20.5338 34.5442 20.5818C34.1214 20.6298 33.6944 20.5415 33.3254 20.3298L29.9874 18.4198L24.3974 24.0068C24.0084 24.3988 23.4964 24.5938 22.9844 24.5938C22.5885 24.5939 22.2016 24.4765 21.8725 24.2566C21.5434 24.0366 21.287 23.724 21.1357 23.3582C20.9844 22.9924 20.945 22.59 21.0226 22.2019C21.1001 21.8137 21.2911 21.4573 21.5714 21.1777L28.2374 14.5107C28.5475 14.2005 28.9511 14.0009 29.3859 13.9427C29.8207 13.8845 30.2626 13.971 30.6434 14.1888L34.0374 16.1298L36.6404 13.7458L34.9044 12.0068C34.6249 11.7273 34.4344 11.3713 34.357 10.9836C34.2795 10.596 34.3187 10.1942 34.4694 9.82875C34.6209 9.46335 34.8773 9.15103 35.2062 8.93123C35.5351 8.71143 35.9218 8.594 36.3174 8.59375H42.9844C43.5148 8.59375 44.0235 8.80446 44.3986 9.17954C44.7737 9.55461 44.9844 10.0633 44.9844 10.5938V17.2607Z" fill="black"/>
<path d="M54.9844 0.59375H10.9844C9.89138 0.59375 8.98438 1.50075 8.98438 2.59375V25.2607C8.98398 26.2238 9.17339 27.1776 9.54176 28.0674C9.91014 28.9573 10.4503 29.7658 11.1313 30.4468C11.8123 31.1279 12.6208 31.668 13.5107 32.0364C14.4005 32.4047 15.3543 32.5941 16.3174 32.5938H23.0114C24.1072 30.9535 25.5906 29.6087 27.3301 28.6785C29.0697 27.7483 31.0117 27.2613 32.9844 27.2607C37.1174 27.2607 40.7974 29.3668 42.9574 32.5938H49.6514C50.6145 32.5941 51.5682 32.4047 52.4581 32.0364C53.3479 31.668 54.1565 31.1279 54.8375 30.4468C55.5185 29.7658 56.0586 28.9573 56.427 28.0674C56.7954 27.1776 56.9848 26.2238 56.9844 25.2607V2.59375C56.9844 1.50075 56.0774 0.59375 54.9844 0.59375ZM44.9844 17.2607C44.9838 17.791 44.773 18.2994 44.398 18.6744C44.023 19.0493 43.5146 19.2602 42.9844 19.2607C42.7218 19.261 42.4617 19.2092 42.2192 19.1085C41.9767 19.0077 41.7565 18.86 41.5714 18.6737L39.4754 16.5778L35.6754 20.0627C35.3633 20.3519 34.9669 20.5338 34.5442 20.5818C34.1214 20.6298 33.6944 20.5415 33.3254 20.3298L29.9874 18.4198L24.3974 24.0068C24.0084 24.3988 23.4964 24.5938 22.9844 24.5938C22.5885 24.5939 22.2016 24.4765 21.8725 24.2566C21.5434 24.0366 21.287 23.724 21.1357 23.3582C20.9844 22.9924 20.945 22.59 21.0226 22.2019C21.1001 21.8137 21.2911 21.4573 21.5714 21.1777L28.2374 14.5107C28.5475 14.2005 28.9511 14.0009 29.3859 13.9427C29.8207 13.8845 30.2626 13.971 30.6434 14.1888L34.0374 16.1298L36.6404 13.7458L34.9044 12.0068C34.6249 11.7273 34.4344 11.3713 34.357 10.9836C34.2795 10.596 34.3187 10.1942 34.4694 9.82875C34.6209 9.46335 34.8773 9.15103 35.2062 8.93123C35.5351 8.71143 35.9218 8.594 36.3174 8.59375H42.9844C43.5148 8.59375 44.0235 8.80446 44.3986 9.17954C44.7737 9.55461 44.9844 10.0633 44.9844 10.5938V17.2607Z" fill="url(#paint0_linear_1_26)"/>
<path d="M11.6514 45.9267C12.3517 45.9267 13.0452 45.7888 13.6922 45.5208C14.3393 45.2528 14.9272 44.86 15.4224 44.3647C15.9176 43.8695 16.3104 43.2816 16.5784 42.6346C16.8464 41.9876 16.9844 41.2941 16.9844 40.5937C16.9844 39.8934 16.8464 39.1999 16.5784 38.5529C16.3104 37.9059 15.9176 37.318 15.4224 36.8227C14.9272 36.3275 14.3393 35.9347 13.6922 35.6667C13.0452 35.3987 12.3517 35.2607 11.6514 35.2607C10.237 35.2607 8.88051 35.8226 7.88037 36.8227C6.88024 37.8229 6.31838 39.1793 6.31838 40.5937C6.31838 42.0081 6.88024 43.3646 7.88037 44.3647C8.88051 45.3649 10.237 45.9267 11.6514 45.9267ZM18.7714 49.6607C17.3873 50.7026 16.2644 52.0519 15.4915 53.6023C14.7185 55.1526 14.3165 56.8614 14.3174 58.5937V59.2607H2.98438C1.89138 59.2607 0.984376 58.3537 0.984376 57.2607V55.9267C0.983981 54.9636 1.17339 54.0099 1.54176 53.1201C1.91014 52.2302 2.45027 51.4217 3.13128 50.7407C3.81229 50.0596 4.62083 49.5195 5.51069 49.1511C6.40055 48.7828 7.35428 48.5933 8.31738 48.5937H14.9844C16.3714 48.5937 17.6774 48.9937 18.7714 49.6607ZM54.3174 45.9267C55.0177 45.9267 55.7112 45.7888 56.3582 45.5208C57.0053 45.2528 57.5932 44.86 58.0884 44.3647C58.5836 43.8695 58.9764 43.2816 59.2444 42.6346C59.5124 41.9876 59.6504 41.2941 59.6504 40.5937C59.6504 39.8934 59.5124 39.1999 59.2444 38.5529C58.9764 37.9059 58.5836 37.318 58.0884 36.8227C57.5932 36.3275 57.0053 35.9347 56.3582 35.6667C55.7112 35.3987 55.0177 35.2607 54.3174 35.2607C52.903 35.2607 51.5465 35.8226 50.5464 36.8227C49.5462 37.8229 48.9844 39.1793 48.9844 40.5937C48.9844 42.0081 49.5462 43.3646 50.5464 44.3647C51.5465 45.3649 52.903 45.9267 54.3174 45.9267ZM64.9844 55.9267V57.2607C64.9844 58.3537 64.0774 59.2607 62.9844 59.2607H51.6514V58.5937C51.6514 54.9407 49.8914 51.6867 47.1974 49.6607C48.338 48.9645 49.6481 48.5953 50.9844 48.5937H57.6514C58.6145 48.5933 59.5682 48.7828 60.4581 49.1511C61.3479 49.5195 62.1565 50.0596 62.8375 50.7407C63.5185 51.4217 64.0586 52.2302 64.427 53.1201C64.7954 54.0099 64.9848 54.9636 64.9844 55.9267ZM32.9844 47.2607C35.1061 47.2607 37.1409 46.4179 38.6412 44.9176C40.1415 43.4173 40.9844 41.3825 40.9844 39.2607C40.9844 37.139 40.1415 35.1042 38.6412 33.6039C37.1409 32.1036 35.1061 31.2607 32.9844 31.2607C30.8626 31.2607 28.8278 32.1036 27.3275 33.6039C25.8272 35.1042 24.9844 37.139 24.9844 39.2607C24.9844 41.3825 25.8272 43.4173 27.3275 44.9176C28.8278 46.4179 30.8626 47.2607 32.9844 47.2607ZM40.3184 51.2607H25.6504C23.7061 51.2626 21.842 52.0358 20.4672 53.4106C19.0924 54.7854 18.3192 56.6495 18.3174 58.5937V62.5937C18.3174 63.1242 18.5281 63.6329 18.9032 64.008C19.2782 64.383 19.7869 64.5937 20.3174 64.5937H45.6514C46.1818 64.5937 46.6905 64.383 47.0656 64.008C47.4407 63.6329 47.6514 63.1242 47.6514 62.5937V58.5937C47.6495 56.6493 46.8762 54.7851 45.5012 53.4102C44.1262 52.0354 42.2628 51.2623 40.3184 51.2607Z" fill="#3D5DF2"/>
<path d="M60.3174 4.59375H5.65137C5.12093 4.59375 4.61223 4.38304 4.23715 4.00796C3.86208 3.63289 3.65137 3.12418 3.65137 2.59375C3.65137 2.06332 3.86208 1.55461 4.23715 1.17954C4.61223 0.804464 5.12093 0.59375 5.65137 0.59375L60.3174 0.59375C60.8478 0.59375 61.3565 0.804464 61.7316 1.17954C62.1067 1.55461 62.3174 2.06332 62.3174 2.59375C62.3174 3.12418 62.1067 3.63289 61.7316 4.00796C61.3565 4.38304 60.8478 4.59375 60.3174 4.59375Z" fill="black"/>
<path d="M60.3174 4.59375H5.65137C5.12093 4.59375 4.61223 4.38304 4.23715 4.00796C3.86208 3.63289 3.65137 3.12418 3.65137 2.59375C3.65137 2.06332 3.86208 1.55461 4.23715 1.17954C4.61223 0.804464 5.12093 0.59375 5.65137 0.59375L60.3174 0.59375C60.8478 0.59375 61.3565 0.804464 61.7316 1.17954C62.1067 1.55461 62.3174 2.06332 62.3174 2.59375C62.3174 3.12418 62.1067 3.63289 61.7316 4.00796C61.3565 4.38304 60.8478 4.59375 60.3174 4.59375Z" fill="url(#paint1_linear_1_26)"/>
</g>
</g>
<defs>
<linearGradient id="paint0_linear_1_26" x1="32.9844" y1="0.59375" x2="17.4354" y2="71.6457" gradientUnits="userSpaceOnUse">
<stop stop-color="#B09CFF"/>
<stop offset="1" stop-color="#3D5DF2" stop-opacity="0.79"/>
</linearGradient>
<linearGradient id="paint1_linear_1_26" x1="32.9844" y1="0.59375" x2="32.7764" y2="9.89575" gradientUnits="userSpaceOnUse">
<stop stop-color="#B09CFF"/>
<stop offset="1" stop-color="#3D5DF2" stop-opacity="0.79"/>
</linearGradient>
<clipPath id="clip0_1_26">
<rect width="64" height="64" fill="white" transform="translate(0.984375 0.59375)"/>
</clipPath>
</defs>
</svg>
