<svg width="65" height="65" viewBox="0 0 65 65" fill="none" xmlns="http://www.w3.org/2000/svg">
<g clip-path="url(#clip0_1_19)">
<path d="M10.8862 42.8367C12.6562 44.4207 14.6642 45.6767 16.8162 46.6207L28.1332 39.5137C30.4742 38.0367 33.6113 38.3857 35.5703 40.3567L39.3763 44.1617C45.0803 39.9567 48.6562 33.2287 48.6562 25.9267C48.6562 13.4287 38.4882 3.26074 25.9893 3.26074C13.4913 3.26074 3.32325 13.4287 3.32325 25.9267C3.32325 32.3777 6.07825 38.5407 10.8862 42.8367ZM27.0033 27.9267H24.9762C23.5621 27.925 22.1999 27.3939 21.1577 26.438C20.1156 25.4822 19.4689 24.1709 19.3451 22.7622C19.2214 21.3535 19.6294 19.9495 20.4889 18.8266C21.3484 17.7036 22.5971 16.9431 23.9893 16.6947V14.5937C23.9893 14.0633 24.2 13.5546 24.575 13.1795C24.9501 12.8045 25.4588 12.5937 25.9893 12.5937C26.5197 12.5937 27.0284 12.8045 27.4035 13.1795C27.7785 13.5546 27.9893 14.0633 27.9893 14.5937V16.5937H30.6562C31.1867 16.5937 31.6954 16.8045 32.0705 17.1795C32.4455 17.5546 32.6562 18.0633 32.6562 18.5937C32.6562 19.1242 32.4455 19.6329 32.0705 20.008C31.6954 20.383 31.1867 20.5937 30.6562 20.5937H24.9762C24.0642 20.5937 23.3223 21.3347 23.3223 22.2467C23.3223 23.1857 24.0642 23.9267 24.9762 23.9267H27.0023C28.4164 23.9285 29.7786 24.4596 30.8208 25.4154C31.8629 26.3713 32.5096 27.6826 32.6334 29.0913C32.7571 30.5 32.3491 31.904 31.4896 33.0269C30.6301 34.1498 29.3814 34.9104 27.9893 35.1587V37.2577C27.9893 37.7882 27.7785 38.2969 27.4035 38.672C27.0284 39.047 26.5197 39.2577 25.9893 39.2577C25.4588 39.2577 24.9501 39.047 24.575 38.672C24.2 38.2969 23.9893 37.7882 23.9893 37.2577V35.2607H21.3232C20.7928 35.2607 20.2841 35.05 19.909 34.675C19.534 34.2999 19.3232 33.7912 19.3232 33.2607C19.3232 32.7303 19.534 32.2216 19.909 31.8465C20.2841 31.4715 20.7928 31.2607 21.3232 31.2607H27.0033C27.9153 31.2607 28.6562 30.5187 28.6562 29.6067C28.6589 29.3876 28.6181 29.1701 28.5362 28.9667C28.4544 28.7634 28.3331 28.5783 28.1793 28.4221C28.0255 28.2659 27.8423 28.1417 27.6403 28.0567C27.4383 27.9717 27.2224 27.9275 27.0033 27.9267Z" fill="url(#paint0_linear_1_19)"/>
<path d="M61.9893 32.5938H51.3232C50.7958 32.5936 50.2802 32.7499 49.8416 33.0429C49.403 33.3359 49.0612 33.7524 48.8594 34.2397C48.6576 34.7271 48.6049 35.2633 48.7079 35.7806C48.811 36.2979 49.0651 36.773 49.4383 37.1457L52.8843 40.5938L41.9893 51.4897L33.2082 42.7088C32.7833 42.2841 32.2274 42.0153 31.6307 41.9459C31.0339 41.8766 30.4312 42.0108 29.9202 42.3268L1.92025 59.6608C1.33605 60.0405 0.923737 60.6339 0.771588 61.3139C0.61944 61.9938 0.739545 62.7063 1.10619 63.2988C1.47284 63.8914 2.05688 64.3168 2.73329 64.484C3.4097 64.6513 4.12471 64.5471 4.72525 64.1937L30.9282 47.9728L40.1012 57.1457C40.3487 57.3937 40.6426 57.5903 40.9661 57.7245C41.2897 57.8587 41.6365 57.9278 41.9868 57.9278C42.337 57.9278 42.6838 57.8587 43.0074 57.7245C43.3309 57.5903 43.6248 57.3937 43.8722 57.1457L56.6562 44.3647L60.1043 47.8128C60.4775 48.185 60.9526 48.4383 61.4696 48.5407C61.9867 48.6432 62.5225 48.5902 63.0095 48.3884C63.4964 48.1867 63.9127 47.8452 64.2058 47.4071C64.4989 46.969 64.6556 46.4539 64.6562 45.9268V35.2608C64.6564 34.9105 64.5875 34.5636 64.4535 34.24C64.3195 33.9163 64.1231 33.6223 63.8754 33.3746C63.6277 33.1269 63.3337 32.9305 63.01 32.7965C62.6864 32.6625 62.3395 32.5936 61.9893 32.5938Z" fill="#3D5DF2"/>
</g>
<defs>
<linearGradient id="paint0_linear_1_19" x1="25.9893" y1="3.26074" x2="-2.84375" y2="95.0937" gradientUnits="userSpaceOnUse">
<stop stop-color="#B09CFF"/>
<stop offset="1" stop-color="#3D5DF2" stop-opacity="0.79"/>
</linearGradient>
<clipPath id="clip0_1_19">
<rect width="64" height="64" fill="white" transform="translate(0.65625 0.59375)"/>
</clipPath>
</defs>
</svg>
