<svg width="40" height="41" viewBox="0 0 40 41" fill="none" xmlns="http://www.w3.org/2000/svg">
<g clip-path="url(#clip0_1_258)">
<mask id="mask0_1_258" style="mask-type:luminance" maskUnits="userSpaceOnUse" x="0" y="0" width="40" height="41">
<path d="M0 0.84375H40V40.8438H0V0.84375Z" fill="white"/>
</mask>
<g mask="url(#mask0_1_258)">
<path d="M22.0831 0.843751H4.58313C3.98119 0.843504 3.38511 0.961882 2.82895 1.19212C2.27279 1.42235 1.76745 1.75994 1.34182 2.18557C0.916186 2.6112 0.578604 3.11654 0.348368 3.6727C0.118132 4.22886 -0.000246024 4.82494 3.8389e-07 5.42688V31.2606C-0.000246024 31.8626 0.118132 32.4586 0.348368 33.0148C0.578604 33.571 0.916186 34.0763 1.34182 34.5019C1.76745 34.9276 2.27279 35.2651 2.82895 35.4954C3.38511 35.7256 3.98119 35.844 4.58313 35.8438H17.1831C16.2929 34.0282 15.8311 32.0327 15.8331 30.0106C15.8331 28.5606 16.0669 27.1437 16.5169 25.8438C16.7927 24.9707 17.1672 24.1319 17.6331 23.3438C18.6325 21.6127 20.0117 20.1311 21.6669 19.0106C23.15 17.9938 24.8331 17.2606 26.6669 16.9106V5.42688C26.6671 4.82489 26.5487 4.22876 26.3184 3.67255C26.0882 3.11635 25.7505 2.61099 25.3248 2.18535C24.8991 1.75971 24.3937 1.42214 23.8375 1.19194C23.2813 0.961739 22.6851 0.843422 22.0831 0.843751ZM20 17.9269C19.9997 18.2583 19.8679 18.576 19.6335 18.8104C19.3992 19.0447 19.0814 19.1765 18.75 19.1769C18.5859 19.1771 18.4234 19.1449 18.2718 19.082C18.1203 19.0191 17.9826 18.9269 17.8669 18.8106L16.55 17.4938L14.1813 19.6788C13.7813 20.0488 13.1881 20.1169 12.7131 19.8456L10.6269 18.6519L7.13313 22.1438C6.89 22.3888 6.57 22.5106 6.25 22.5106C6.00261 22.5107 5.76076 22.4374 5.55507 22.2999C5.34939 22.1624 5.18912 21.967 5.09456 21.7384C5 21.5098 4.9754 21.2583 5.02387 21.0157C5.07235 20.7731 5.19172 20.5503 5.36688 20.3756L9.53313 16.2088C9.72639 16.0139 9.97866 15.8885 10.2507 15.852C10.5226 15.8154 10.7991 15.8699 11.0369 16.0069L13.1581 17.2206L14.78 15.7238L13.7 14.6438C13.5246 14.4693 13.4049 14.2466 13.3563 14.0041C13.3077 13.7615 13.3323 13.5099 13.4269 13.2813C13.5215 13.0527 13.682 12.8574 13.8878 12.7202C14.0937 12.583 14.3357 12.51 14.5831 12.5106H18.75C19.0815 12.5106 19.3995 12.6423 19.6339 12.8767C19.8683 13.1112 20 13.4291 20 13.7606V17.9269Z" fill="url(#paint0_linear_1_258)"/>
<path d="M29.1669 19.1768C23.1931 19.1768 18.3331 24.0368 18.3331 30.0105C18.3338 35.9836 23.1938 40.8436 29.1675 40.8436C35.14 40.8436 40 35.9836 40 30.0105C40 24.0368 35.14 19.1768 29.1669 19.1768ZM28.9581 28.7605H29.375C31.0988 28.7605 32.5 30.1618 32.5 31.8855C32.5 33.2405 31.6269 34.3868 30.4169 34.8186V35.4268C30.4169 35.7583 30.2852 36.0762 30.0508 36.3106C29.8163 36.5451 29.4984 36.6768 29.1669 36.6768C28.8354 36.6768 28.5174 36.5451 28.283 36.3106C28.0486 36.0762 27.9169 35.7583 27.9169 35.4268V35.0105H27.0831C26.7516 35.0105 26.4337 34.8788 26.1992 34.6444C25.9648 34.41 25.8331 34.092 25.8331 33.7605C25.8331 33.429 25.9648 33.111 26.1992 32.8766C26.4337 32.6422 26.7516 32.5105 27.0831 32.5105H29.375C29.5408 32.5105 29.6997 32.4447 29.8169 32.3274C29.9342 32.2102 30 32.0513 30 31.8855C30 31.7197 29.9342 31.5608 29.8169 31.4436C29.6997 31.3264 29.5408 31.2605 29.375 31.2605H28.9588C27.235 31.2605 25.8338 29.8586 25.8338 28.1355C25.8338 26.7805 26.7069 25.6336 27.9169 25.2018V24.5936C27.9169 24.2621 28.0486 23.9442 28.283 23.7097C28.5174 23.4753 28.8354 23.3436 29.1669 23.3436C29.4984 23.3436 29.8163 23.4753 30.0508 23.7097C30.2852 23.9442 30.4169 24.2621 30.4169 24.5936V25.0105H31.25C31.5815 25.0105 31.8995 25.1422 32.1339 25.3766C32.3683 25.611 32.5 25.929 32.5 26.2605C32.5 26.592 32.3683 26.91 32.1339 27.1444C31.8995 27.3788 31.5815 27.5105 31.25 27.5105H28.9588C28.793 27.5105 28.634 27.5764 28.5168 27.6936C28.3996 27.8108 28.3338 27.9697 28.3338 28.1355C28.3338 28.3013 28.3996 28.4602 28.5168 28.5774C28.634 28.6947 28.7924 28.7605 28.9581 28.7605Z" fill="#3D5DF2"/>
</g>
</g>
<defs>
<linearGradient id="paint0_linear_1_258" x1="13.3331" y1="0.843752" x2="-16.2594" y2="69.5287" gradientUnits="userSpaceOnUse">
<stop stop-color="#B09CFF"/>
<stop offset="1" stop-color="#3D5DF2" stop-opacity="0.79"/>
</linearGradient>
<clipPath id="clip0_1_258">
<rect width="40" height="40" fill="white" transform="translate(0 0.84375)"/>
</clipPath>
</defs>
</svg>
