<svg width="40" height="41" viewBox="0 0 40 41" fill="none" xmlns="http://www.w3.org/2000/svg">
<g clip-path="url(#clip0_1_269)">
<mask id="mask0_1_269" style="mask-type:luminance" maskUnits="userSpaceOnUse" x="0" y="0" width="40" height="41">
<path d="M0 0.84375H40V40.8438H0V0.84375Z" fill="white"/>
</mask>
<g mask="url(#mask0_1_269)">
<path d="M6 8.51074C6 6.84387 8.52812 2.51074 13.3331 2.51074C18.1119 2.51074 20.6831 6.84387 20.6831 8.51074C20.6669 8.51074 20.6331 8.52699 20.6169 8.52699C17.8169 9.27699 16 6.22699 15.9331 6.09387C15.8682 5.98622 15.78 5.89441 15.6751 5.8251C15.5702 5.7558 15.4512 5.71074 15.3267 5.6932C15.2022 5.67566 15.0753 5.68609 14.9553 5.72372C14.8354 5.76135 14.7253 5.82524 14.6331 5.91074C11.1 9.19387 6.38312 8.56074 6 8.51074Z" fill="url(#paint0_linear_1_269)"/>
<path d="M15.05 7.74365C11.25 10.7268 6.76686 10.2937 5.84998 10.1768C5.64686 13.2155 8.58498 17.5105 13.3331 17.5105C18.1019 17.5105 21.0319 13.1855 20.8169 10.1768C18.6081 10.7537 16.4981 9.55365 15.05 7.74365Z" fill="url(#paint1_linear_1_269)"/>
<path d="M19.51 20.8438H6.25C2.80313 20.8438 0 23.6469 0 27.0938V32.9269C0 33.2584 0.131696 33.5763 0.366117 33.8108C0.600537 34.0452 0.918479 34.1769 1.25 34.1769H16.51C14.9469 29.4456 16.15 24.3819 19.51 20.8438Z" fill="url(#paint2_linear_1_269)"/>
<path d="M29.1669 19.1768C23.1931 19.1768 18.3331 24.0368 18.3331 30.0105C18.3338 35.9836 23.1938 40.8436 29.1675 40.8436C35.14 40.8436 40 35.9836 40 30.0105C40 24.0368 35.14 19.1768 29.1669 19.1768ZM28.9581 28.7605H29.375C31.0988 28.7605 32.5 30.1618 32.5 31.8855C32.5 33.2405 31.6269 34.3868 30.4169 34.8186V36.2605C30.4169 36.592 30.2852 36.91 30.0508 37.1444C29.8163 37.3788 29.4984 37.5105 29.1669 37.5105C28.8354 37.5105 28.5174 37.3788 28.283 37.1444C28.0486 36.91 27.9169 36.592 27.9169 36.2605V35.0105H27.0831C26.7516 35.0105 26.4337 34.8788 26.1992 34.6444C25.9648 34.41 25.8331 34.092 25.8331 33.7605C25.8331 33.429 25.9648 33.111 26.1992 32.8766C26.4337 32.6422 26.7516 32.5105 27.0831 32.5105H29.375C29.5408 32.5105 29.6997 32.4447 29.8169 32.3274C29.9342 32.2102 30 32.0513 30 31.8855C30 31.7197 29.9342 31.5608 29.8169 31.4436C29.6997 31.3264 29.5408 31.2605 29.375 31.2605H28.9588C27.235 31.2605 25.8338 29.8586 25.8338 28.1355C25.8338 26.7805 26.7069 25.6336 27.9169 25.2018V23.7605C27.9169 23.429 28.0486 23.111 28.283 22.8766C28.5174 22.6422 28.8354 22.5105 29.1669 22.5105C29.4984 22.5105 29.8163 22.6422 30.0508 22.8766C30.2852 23.111 30.4169 23.429 30.4169 23.7605V25.0105H31.25C31.5815 25.0105 31.8995 25.1422 32.1339 25.3766C32.3683 25.611 32.5 25.929 32.5 26.2605C32.5 26.592 32.3683 26.91 32.1339 27.1444C31.8995 27.3788 31.5815 27.5105 31.25 27.5105H28.9588C28.793 27.5105 28.634 27.5764 28.5168 27.6936C28.3996 27.8108 28.3338 27.9697 28.3338 28.1355C28.3338 28.3013 28.3996 28.4602 28.5168 28.5774C28.634 28.6947 28.7924 28.7605 28.9581 28.7605Z" fill="#3D5DF2"/>
</g>
</g>
<defs>
<linearGradient id="paint0_linear_1_269" x1="13.3419" y1="2.51074" x2="11.42" y2="16.5214" gradientUnits="userSpaceOnUse">
<stop stop-color="#B09CFF"/>
<stop offset="1" stop-color="#3D5DF2" stop-opacity="0.79"/>
</linearGradient>
<linearGradient id="paint1_linear_1_269" x1="13.3337" y1="7.74365" x2="8.68561" y2="29.4737" gradientUnits="userSpaceOnUse">
<stop stop-color="#B09CFF"/>
<stop offset="1" stop-color="#3D5DF2" stop-opacity="0.79"/>
</linearGradient>
<linearGradient id="paint2_linear_1_269" x1="9.755" y1="20.8438" x2="3.12875" y2="50.38" gradientUnits="userSpaceOnUse">
<stop stop-color="#B09CFF"/>
<stop offset="1" stop-color="#3D5DF2" stop-opacity="0.79"/>
</linearGradient>
<clipPath id="clip0_1_269">
<rect width="40" height="40" fill="white" transform="translate(0 0.84375)"/>
</clipPath>
</defs>
</svg>
