<svg width="40" height="41" viewBox="0 0 40 41" fill="none" xmlns="http://www.w3.org/2000/svg">
<g clip-path="url(#clip0_1_244)">
<mask id="mask0_1_244" style="mask-type:luminance" maskUnits="userSpaceOnUse" x="0" y="0" width="40" height="41">
<path d="M0 0.84375H40V40.8438H0V0.84375Z" fill="white"/>
</mask>
<g mask="url(#mask0_1_244)">
<path d="M20.4169 19.1768H6.25C2.8 19.1768 0 21.9768 0 25.4268V31.2605C0 31.9437 0.566875 32.5105 1.25 32.5105H16.6669V30.4268C16.6669 27.2937 19 24.7105 22.0169 24.2605C22.4934 22.8603 23.4498 21.6737 24.7169 20.9105C23.5649 19.7933 22.0216 19.1711 20.4169 19.1768Z" fill="url(#paint0_linear_1_244)"/>
<path d="M6 6.84375C6 5.17688 8.52812 0.84375 13.3331 0.84375C18.1119 0.84375 20.6831 5.17688 20.6831 6.84375C20.6669 6.84375 20.6331 6.86062 20.6169 6.86062C17.8169 7.61062 16 4.56062 15.9331 4.42687C15.8682 4.31923 15.78 4.22742 15.6751 4.15811C15.5702 4.08881 15.4512 4.04375 15.3267 4.02621C15.2022 4.00867 15.0753 4.01909 14.9553 4.05672C14.8354 4.09436 14.7253 4.15825 14.6331 4.24375C11.1 7.52687 6.38312 6.89375 6 6.84375Z" fill="url(#paint1_linear_1_244)"/>
<path d="M19.7 8.64353C17.45 8.64353 15.85 7.07666 15.05 6.07666C11.25 9.06041 6.76625 8.62666 5.85 8.51041C5.64625 11.5485 8.585 15.8435 13.3331 15.8435C18.1019 15.8435 21.0312 11.5185 20.8162 8.51041C20.4331 8.61041 20.0662 8.64353 19.7 8.64353Z" fill="url(#paint2_linear_1_244)"/>
<path d="M37.0831 27.5106H35V26.2606C34.9992 25.4873 34.6916 24.7458 34.1448 24.199C33.5979 23.6522 32.8565 23.3446 32.0831 23.3438H27.9169C27.1435 23.3446 26.4021 23.6522 25.8552 24.199C25.3084 24.7458 25.0008 25.4873 25 26.2606V27.5106H22.9163C22.5265 27.5107 22.1407 27.5894 21.782 27.742C21.4234 27.8946 21.0991 28.118 20.8288 28.3988L30 33.1838L39.1719 28.3988C38.9013 28.1178 38.5769 27.8944 38.218 27.7418C37.8591 27.5892 37.4731 27.5106 37.0831 27.5106ZM27.5 27.5106V26.2606C27.5 26.0306 27.6863 25.8438 27.9163 25.8438H32.0831C32.3131 25.8438 32.5 26.0306 32.5 26.2606V27.5106H27.5Z" fill="#3D5DF2"/>
<path d="M30.5781 35.7019C30.3998 35.7947 30.2017 35.8431 30.0006 35.8431C29.7996 35.8431 29.6015 35.7947 29.4231 35.7019L20 30.7856V37.9269C20.0008 38.7002 20.3084 39.4417 20.8552 39.9885C21.4021 40.5354 22.1435 40.8429 22.9169 40.8438H37.0831C37.8565 40.8429 38.5979 40.5354 39.1448 39.9885C39.6916 39.4417 39.9992 38.7002 40 37.9269V30.7856L30.5781 35.7019Z" fill="#3D5DF2"/>
</g>
</g>
<defs>
<linearGradient id="paint0_linear_1_244" x1="12.3581" y1="19.1768" x2="7.03188" y2="49.2568" gradientUnits="userSpaceOnUse">
<stop stop-color="#B09CFF"/>
<stop offset="1" stop-color="#3D5DF2" stop-opacity="0.79"/>
</linearGradient>
<linearGradient id="paint1_linear_1_244" x1="13.3419" y1="0.84375" x2="11.42" y2="14.855" gradientUnits="userSpaceOnUse">
<stop stop-color="#B09CFF"/>
<stop offset="1" stop-color="#3D5DF2" stop-opacity="0.79"/>
</linearGradient>
<linearGradient id="paint2_linear_1_244" x1="13.3337" y1="6.07666" x2="8.68562" y2="27.8067" gradientUnits="userSpaceOnUse">
<stop stop-color="#B09CFF"/>
<stop offset="1" stop-color="#3D5DF2" stop-opacity="0.79"/>
</linearGradient>
<clipPath id="clip0_1_244">
<rect width="40" height="40" fill="white" transform="translate(0 0.84375)"/>
</clipPath>
</defs>
</svg>
