<svg width="36" height="36" viewBox="0 0 36 36" fill="none" xmlns="http://www.w3.org/2000/svg">
<path d="M18.1879 8.40039C16.5082 8.40039 15.1875 9.72002 15.1875 11.4008C15.1875 13.0815 16.5071 14.4011 18.1879 14.4011C19.8675 14.4011 21.1882 13.0815 21.1882 11.4008C21.1882 9.72002 19.8686 8.40039 18.1879 8.40039ZM18.1879 13.1996C17.1675 13.1996 16.3879 12.42 16.3879 11.3996C16.3879 10.3793 17.1675 9.59964 18.1879 9.59964C19.2082 9.59964 19.9879 10.3793 19.9879 11.3996C19.9879 12.42 19.2082 13.1996 18.1879 13.1996Z" fill="#0000FF"/>
<path d="M24.1875 21.2996C24.1875 16.9796 24.1875 12.06 24.1875 10.26C24.1875 6.89963 21.9678 2.34 18.1878 0C14.4078 2.34 12.1882 6.89963 12.1882 10.3196C12.1882 12.1196 12.1882 17.0393 12.1882 21.3593L6.1886 28.7989H30.1882L24.1886 21.2985L24.1875 21.2996ZM12.1871 27.5996H8.70747L12.1871 23.22V27.5996ZM22.9871 27.5996H13.3875V10.3196C13.3875 7.61963 15.0671 3.71925 18.1878 1.44C21.3075 3.72038 22.9882 7.56 22.9882 10.3196V27.5996H22.9871ZM24.1875 23.22L27.6671 27.5996H24.1875C24.1875 26.5793 24.1875 25.02 24.1875 23.22Z" fill="#0000FF"/>
<path d="M17.5872 30.0005H18.7875V36.0001H17.5872V30.0005Z" fill="#0000FF"/>
<path d="M20.5875 30.0005H21.7879V33.6005H20.5875V30.0005Z" fill="#0000FF"/>
<path d="M14.5879 30.0005H15.7883V33.6005H14.5879V30.0005Z" fill="#0000FF"/>
</svg>
