<svg width="36" height="36" viewBox="0 0 36 36" fill="none" xmlns="http://www.w3.org/2000/svg">
<path d="M28.9393 12H24.75C24.3358 12 24 11.6642 24 11.25C24 10.8358 24.3358 10.5 24.75 10.5H30.75C31.1642 10.5 31.5 10.8358 31.5 11.25V17.25C31.5 17.6642 31.1642 18 30.75 18C30.3358 18 30 17.6642 30 17.25V13.0607L22.2803 20.7803C21.9874 21.0732 21.5126 21.0732 21.2197 20.7803L17.25 16.8107L11.7803 22.2803C11.4874 22.5732 11.0126 22.5732 10.7197 22.2803C10.4268 21.9874 10.4268 21.5126 10.7197 21.2197L16.7197 15.2197C17.0126 14.9268 17.4874 14.9268 17.7803 15.2197L21.75 19.1893L28.9393 12ZM30.75 27C31.1642 27 31.5 27.3358 31.5 27.75C31.5 28.1642 31.1642 28.5 30.75 28.5H8.25C6.17893 28.5 4.5 26.8211 4.5 24.75V11.25C4.5 10.8358 4.83579 10.5 5.25 10.5C5.66421 10.5 6 10.8358 6 11.25V24.75C6 25.9926 7.00736 27 8.25 27H30.75Z" fill="#0000FF"/>
</svg>
