<svg width="36" height="35" viewBox="0 0 36 35" fill="none" xmlns="http://www.w3.org/2000/svg">
<path d="M32.884 19.803C33.0077 19.0427 33.0702 18.271 33.0702 17.5001C33.0702 16.7294 33.0077 15.9577 32.884 15.1972C33.6143 14.5682 34.1355 13.7415 34.3816 12.8042C34.7006 11.5882 34.521 10.3201 33.8755 9.23306L33.3019 8.26727C32.4262 6.79276 30.7932 5.87675 29.0404 5.87675C28.5151 5.87675 27.9917 5.96012 27.4935 6.12099C26.2536 5.14044 24.8786 4.36761 23.3902 3.81478C23.1947 2.886 22.719 2.03443 22.0074 1.35916C21.0839 0.482703 19.8644 0 18.5736 0H17.4265C16.1357 0 14.9162 0.482703 13.9927 1.35906C13.2811 2.03434 12.8052 2.8859 12.6098 3.81459C11.1214 4.36751 9.74636 5.14035 8.50644 6.1209C8.00829 5.96003 7.48493 5.87666 6.95953 5.87666C5.20666 5.87666 3.57371 6.79267 2.69801 8.26718L2.12472 9.23287C1.4792 10.3198 1.29943 11.588 1.61849 12.804C1.86445 13.7413 2.38567 14.5682 3.11595 15.1972C2.99224 15.9576 2.92976 16.7293 2.92976 17.5C2.92976 18.2708 2.99224 19.0424 3.11595 19.8029C2.38567 20.4318 1.86445 21.2586 1.61839 22.196C1.29933 23.4121 1.47911 24.6802 2.12452 25.7671L2.6981 26.7328C3.57371 28.2073 5.20666 29.1233 6.95963 29.1233C7.48493 29.1233 8.00829 29.0402 8.50644 28.8792C9.74636 29.8597 11.1214 30.6325 12.6098 31.1854C12.8052 32.1141 13.281 32.9656 13.9926 33.6409C14.9161 34.5174 16.1356 34.9999 17.4263 34.9999H18.5735C19.8643 34.9999 21.0838 34.5173 22.0072 33.6409C22.7189 32.9656 23.1945 32.1141 23.39 31.1854C24.8784 30.6325 26.2534 29.8597 27.4933 28.8792C27.9914 29.04 28.5148 29.1233 29.0402 29.1233H29.0403C30.793 29.1233 32.426 28.2073 33.3017 26.7328L33.8751 25.7671C34.5207 24.6802 34.7003 23.4119 34.3813 22.196C34.1355 21.2588 33.6142 20.432 32.884 19.803ZM30.3606 14.936C30.5439 15.7757 30.6368 16.6384 30.6368 17.5001C30.6368 18.3618 30.5439 19.2246 30.3606 20.0643C30.2535 20.5544 30.4757 21.0567 30.9151 21.3184C32.0718 22.0074 32.4463 23.442 31.768 24.5846L31.1945 25.5502C30.7521 26.2952 29.9269 26.7578 29.0404 26.7578C28.6296 26.7578 28.2205 26.6564 27.8574 26.4642C27.4039 26.2244 26.8443 26.2888 26.461 26.625C25.1301 27.7924 23.5949 28.6551 21.8978 29.1897C21.4071 29.3442 21.07 29.7826 21.0564 30.2838C21.0207 31.602 19.9302 32.6346 18.5737 32.6346H17.4265C16.07 32.6346 14.9795 31.602 14.9437 30.2838C14.9301 29.7825 14.593 29.3441 14.1024 29.1897C12.4053 28.6554 10.8701 27.7924 9.53904 26.625C9.31012 26.4243 9.01841 26.3204 8.72388 26.3204C8.52532 26.3204 8.3255 26.3676 8.1429 26.4643C7.7745 26.6591 7.3764 26.758 6.95982 26.758C6.07341 26.758 5.24803 26.2952 4.80565 25.5501L4.23207 24.5845C3.55376 23.4421 3.92839 22.0075 5.08509 21.3184C5.52445 21.0567 5.74657 20.5543 5.6396 20.0643C5.45632 19.2246 5.36337 18.3618 5.36337 17.5001C5.36337 16.6386 5.45632 15.7758 5.6396 14.9361C5.74657 14.4461 5.52445 13.9437 5.08519 13.682C3.92849 12.9929 3.55385 11.5583 4.23226 10.4158L4.80565 9.45014C5.24813 8.70522 6.07351 8.24248 6.96002 8.24248C7.37076 8.24248 7.77995 8.34402 8.14319 8.53611C8.59657 8.7759 9.15623 8.71146 9.53943 8.37534C10.8705 7.20799 12.4058 6.34517 14.1028 5.81061C14.5934 5.65617 14.9305 5.21766 14.9441 4.7165C14.9798 3.39832 16.0705 2.36582 17.427 2.36582H18.5741C19.9306 2.36582 21.0211 3.39842 21.0568 4.7165C21.0704 5.21766 21.4075 5.65617 21.8982 5.81061C23.5954 6.34498 25.1305 7.2079 26.4615 8.37534C26.8448 8.71137 27.4045 8.77581 27.8579 8.53611C28.2263 8.34127 28.6243 8.24248 29.0408 8.24248C29.9272 8.24248 30.7526 8.70531 31.1951 9.45023L31.7687 10.4159C32.447 11.5583 32.0724 12.9929 30.9157 13.682C30.4756 13.9436 30.2535 14.446 30.3606 14.936Z" fill="#0000FF"/>
<path d="M18.0001 7.09131C12.0967 7.09131 7.29395 11.7607 7.29395 17.5C7.29395 23.2394 12.0967 27.9089 18.0001 27.9089C23.9034 27.9089 28.7062 23.2394 28.7062 17.5C28.7062 11.7607 23.9034 7.09131 18.0001 7.09131ZM18.0001 25.5431C13.4385 25.5431 9.72727 21.935 9.72727 17.5C9.72727 13.0652 13.4385 9.45704 18.0001 9.45704C22.5617 9.45704 26.2729 13.0652 26.2729 17.5C26.2729 21.935 22.5617 25.5431 18.0001 25.5431Z" fill="#0000FF"/>
</svg>
