<svg width="36" height="36" viewBox="0 0 36 36" fill="none" xmlns="http://www.w3.org/2000/svg">
<path d="M20.0464 5.20312V14.2031C22.3313 15.8557 23.8084 17.3318 24.6522 18.5974C25.4959 19.8979 25.8829 21.1635 25.9178 22.4651C25.9887 24.5745 24.3709 28.6177 20.0464 29.3209V33.5047H17.55V29.3917C13.6823 28.899 11.7844 25.7704 10.8 23.9771L13.0152 22.6766C14.3517 25.173 15.8625 26.5084 17.55 26.8605V15.6454C15.5813 14.1334 14.2808 13.0084 13.788 12.3401C12.8734 11.1094 12.4167 9.774 12.4167 8.36775C12.4167 6.08288 13.8578 2.91825 17.55 2.39062V0H20.0464V2.4255C22.824 2.95313 24.4407 5.13225 25.4959 6.5385L23.3865 8.12025C22.6125 7.101 21.5933 5.73075 20.0464 5.20312ZM17.55 12.3052V5.0985C15.651 5.59125 15.0885 7.31362 15.0885 8.26312C15.0885 9.88087 16.1078 11.0059 16.7412 11.6033C16.8469 11.7439 17.163 11.9903 17.55 12.3064V12.3052ZM20.0464 17.649V26.6839C22.3313 25.9099 23.1402 23.7656 23.1053 22.5349C23.1053 21.6563 22.824 20.8474 22.2615 20.0036C21.7688 19.3354 21.0308 18.5276 20.0464 17.649Z" fill="#0000FF"/>
</svg>
