<svg width="150" height="20" viewBox="0 0 150 20" fill="none" xmlns="http://www.w3.org/2000/svg">
<g clip-path="url(#clip0_1_322)">
<path d="M103.053 0.024657L99.253 0.0345209V19.5321H116.679C118.585 18.7233 119.606 17.3251 120.001 15.6927H103.043L103.053 0.024657ZM131.489 3.92072H146.025C148.045 3.52125 149.549 1.73843 149.971 0.0147931H127.541C127.961 1.73843 129.487 3.52125 131.489 3.92072ZM84.4134 3.86647C86.433 3.27959 88.1344 1.73843 88.5487 0.0295884H67.219V11.5501H84.6773V15.5941L70.9843 15.6064C68.8366 16.2032 67.0217 17.6432 66.1118 19.5469L67.219 19.5271H88.4303V7.72061H70.9843V3.86647H84.4134ZM128.128 19.5271H131.908V11.6783H145.67V19.5271H149.448V7.75513L128.128 7.7354V19.5271ZM37.8407 3.90839H52.3745C54.3965 3.50645 55.8982 1.72363 56.3199 -2.13061e-06H33.8929C34.3121 1.72363 35.836 3.50645 37.8407 3.90839ZM0.0292053 0.0443837C0.465663 1.75076 1.94271 3.48919 3.96719 3.92811H10.085L10.3957 4.05141V19.4877H14.2178V4.05141L14.563 3.92811H20.6882C22.7324 3.40042 24.1774 1.75076 24.6089 0.0443837V0.00739609H0.0292053V0.0443837ZM37.8407 19.5296H52.3745C54.3965 19.1252 55.8982 17.3473 56.3199 15.6212H33.8929C34.3121 17.3473 35.836 19.1252 37.8407 19.5296ZM37.8407 11.6142H52.3745C54.3965 11.2147 55.8982 9.43192 56.3199 7.70828H33.8929C34.3121 9.43192 35.836 11.2147 37.8407 11.6142Z" fill="#E82127"/>
</g>
<defs>
<clipPath id="clip0_1_322">
<rect width="149.942" height="19.5469" fill="white" transform="translate(0.0292053)"/>
</clipPath>
</defs>
</svg>
